<mxfile host="app.diagrams.net" modified="2020-09-21T07:20:56.212Z" agent="5.0 (Macintosh; Intel Mac OS X 10_15_6) AppleWebKit/537.36 (KHTML, like Gecko) Chrome/85.0.4183.102 Safari/537.36" etag="KKll-oWKVf83gI01CvUh" version="13.7.3" type="github">
  <diagram id="R2lEEEUBdFMjLlhIrx00" name="Page-1">
    <mxGraphModel dx="776" dy="1541" grid="1" gridSize="10" guides="1" tooltips="1" connect="1" arrows="1" fold="1" page="1" pageScale="1" pageWidth="850" pageHeight="1100" math="0" shadow="0" extFonts="Permanent Marker^https://fonts.googleapis.com/css?family=Permanent+Marker">
      <root>
        <mxCell id="0" />
        <mxCell id="1" parent="0" />
        <mxCell id="C-vyLk0tnHw3VtMMgP7b-1" value="" style="edgeStyle=entityRelationEdgeStyle;endArrow=ERzeroToMany;startArrow=ERone;endFill=1;startFill=0;" parent="1" source="C-vyLk0tnHw3VtMMgP7b-24" target="C-vyLk0tnHw3VtMMgP7b-6" edge="1">
          <mxGeometry width="100" height="100" relative="1" as="geometry">
            <mxPoint x="340" y="720" as="sourcePoint" />
            <mxPoint x="440" y="620" as="targetPoint" />
          </mxGeometry>
        </mxCell>
        <mxCell id="6Qbgpe0yNBsOp7DJYHt--1" value="operates" style="text;html=1;resizable=0;autosize=1;align=center;verticalAlign=middle;points=[];fillColor=none;strokeColor=none;rounded=0;fontSize=16;" vertex="1" parent="1">
          <mxGeometry x="300" y="210" width="80" height="20" as="geometry" />
        </mxCell>
        <mxCell id="6Qbgpe0yNBsOp7DJYHt--3" style="edgeStyle=orthogonalEdgeStyle;rounded=0;orthogonalLoop=1;jettySize=auto;html=1;exitX=1;exitY=0.5;exitDx=0;exitDy=0;fontSize=14;" edge="1" parent="1" source="C-vyLk0tnHw3VtMMgP7b-6" target="C-vyLk0tnHw3VtMMgP7b-20">
          <mxGeometry relative="1" as="geometry">
            <mxPoint x="750" y="175" as="targetPoint" />
            <Array as="points">
              <mxPoint x="660" y="180" />
            </Array>
          </mxGeometry>
        </mxCell>
        <mxCell id="6Qbgpe0yNBsOp7DJYHt--4" value="&lt;span data-lucid-type=&quot;application/vnd.lucid.text&quot; data-lucid-content=&quot;{&amp;#34;t&amp;#34;:&amp;#34;EMP_INITIAL&amp;#34;,&amp;#34;m&amp;#34;:[{&amp;#34;s&amp;#34;:0,&amp;#34;n&amp;#34;:&amp;#34;a&amp;#34;,&amp;#34;v&amp;#34;:&amp;#34;center&amp;#34;},{&amp;#34;s&amp;#34;:0,&amp;#34;n&amp;#34;:&amp;#34;s&amp;#34;,&amp;#34;v&amp;#34;:26.888888888888882,&amp;#34;e&amp;#34;:11},{&amp;#34;s&amp;#34;:0,&amp;#34;n&amp;#34;:&amp;#34;c&amp;#34;,&amp;#34;v&amp;#34;:&amp;#34;333333ff&amp;#34;,&amp;#34;e&amp;#34;:11}]}&quot;&gt;&lt;span style=&quot;color: rgb(51 , 51 , 51)&quot;&gt;&lt;font style=&quot;font-size: 12px&quot;&gt;&amp;nbsp; &amp;nbsp; &amp;nbsp; &amp;nbsp; &amp;nbsp; &amp;nbsp; &amp;nbsp; &amp;nbsp;EMP_INITIAL&lt;/font&gt;&lt;/span&gt;&lt;/span&gt;" style="text;html=1;align=center;verticalAlign=middle;resizable=0;points=[];autosize=1;fontSize=14;" vertex="1" parent="1">
          <mxGeometry x="830" y="190" width="140" height="20" as="geometry" />
        </mxCell>
        <mxCell id="6Qbgpe0yNBsOp7DJYHt--7" value="EMP_EXTENSION" style="text;html=1;resizable=0;autosize=1;align=center;verticalAlign=middle;points=[];fillColor=none;strokeColor=none;rounded=0;fontSize=12;" vertex="1" parent="1">
          <mxGeometry x="880" y="210" width="120" height="20" as="geometry" />
        </mxCell>
        <mxCell id="6Qbgpe0yNBsOp7DJYHt--8" value="EMP_E-MAIL" style="text;html=1;resizable=0;autosize=1;align=center;verticalAlign=middle;points=[];fillColor=none;strokeColor=none;rounded=0;fontSize=12;" vertex="1" parent="1">
          <mxGeometry x="880" y="230" width="90" height="20" as="geometry" />
        </mxCell>
        <mxCell id="6Qbgpe0yNBsOp7DJYHt--9" value="employs" style="text;html=1;resizable=0;autosize=1;align=center;verticalAlign=middle;points=[];fillColor=none;strokeColor=none;rounded=0;fontSize=16;" vertex="1" parent="1">
          <mxGeometry x="710" y="150" width="80" height="20" as="geometry" />
        </mxCell>
        <mxCell id="6Qbgpe0yNBsOp7DJYHt--10" value="manages" style="text;html=1;resizable=0;autosize=1;align=center;verticalAlign=middle;points=[];fillColor=none;strokeColor=none;rounded=0;fontSize=16;" vertex="1" parent="1">
          <mxGeometry x="710" y="210" width="80" height="20" as="geometry" />
        </mxCell>
        <mxCell id="6Qbgpe0yNBsOp7DJYHt--22" style="edgeStyle=orthogonalEdgeStyle;rounded=0;orthogonalLoop=1;jettySize=auto;html=1;entryX=0.5;entryY=1;entryDx=0;entryDy=0;fontSize=14;" edge="1" parent="1" source="6Qbgpe0yNBsOp7DJYHt--11" target="C-vyLk0tnHw3VtMMgP7b-13">
          <mxGeometry relative="1" as="geometry" />
        </mxCell>
        <mxCell id="6Qbgpe0yNBsOp7DJYHt--11" value="Assignment" style="html=1;whiteSpace=wrap;swimlane;resizeParent=1;resizeParentMax=0;resizeLast=0;collapsible=1;marginBottom=0;swimlaneFillColor=#ffffff;startSize=25.2;fontSize=16;fontColor=#333333;align=center;fillColor=#ffffff;spacing=0;strokeColor=#333333;strokeOpacity=100;fillOpacity=100;rounded=1;absoluteArcSize=1;arcSize=9.6;" vertex="1" zOrder="6050" parent="1">
          <mxGeometry x="867" y="410" width="216" height="151" as="geometry" />
        </mxCell>
        <mxCell id="6Qbgpe0yNBsOp7DJYHt--12" value="PK" style="strokeColor=none;part=1;resizeHeight=0;align=center;verticalAlign=top;spacingLeft=4;spacingRight=4;overflow=hidden;rotatable=0;points=[[0,0.5],[1,0.5]];portConstraint=eastwest;html=1;swimlaneFillColor=#ffffff;fontSize=16;fontColor=#333333;fillColor=none;strokeOpacity=100;fillOpacity=100;" vertex="1" parent="6Qbgpe0yNBsOp7DJYHt--11">
          <mxGeometry y="25.2" width="30" height="25.2" as="geometry" />
        </mxCell>
        <mxCell id="6Qbgpe0yNBsOp7DJYHt--13" value="ASSIGN_NUM" style="shape=partialRectangle;top=0;right=0;bottom=0;part=1;resizeHeight=0;align=left;verticalAlign=top;spacingLeft=4;spacingRight=4;overflow=hidden;rotatable=0;points=[[0,0.5],[1,0.5]];portConstraint=eastwest;html=1;swimlaneFillColor=#ffffff;fontSize=16;fontColor=#333333;fillColor=none;strokeOpacity=100;fillOpacity=100;" vertex="1" parent="6Qbgpe0yNBsOp7DJYHt--11">
          <mxGeometry x="30" y="25.2" width="186" height="25.2" as="geometry" />
        </mxCell>
        <mxCell id="6Qbgpe0yNBsOp7DJYHt--14" value="FK2" style="strokeColor=none;part=1;resizeHeight=0;align=center;verticalAlign=top;spacingLeft=4;spacingRight=4;overflow=hidden;rotatable=0;points=[[0,0.5],[1,0.5]];portConstraint=eastwest;html=1;swimlaneFillColor=#ffffff;fontSize=16;fontColor=#333333;fillColor=none;strokeOpacity=100;fillOpacity=100;" vertex="1" parent="6Qbgpe0yNBsOp7DJYHt--11">
          <mxGeometry y="50.4" width="30" height="25.2" as="geometry" />
        </mxCell>
        <mxCell id="6Qbgpe0yNBsOp7DJYHt--15" value="PROJ_CODE" style="shape=partialRectangle;top=0;right=0;bottom=0;part=1;resizeHeight=0;align=left;verticalAlign=top;spacingLeft=4;spacingRight=4;overflow=hidden;rotatable=0;points=[[0,0.5],[1,0.5]];portConstraint=eastwest;html=1;swimlaneFillColor=#ffffff;fontSize=16;fontColor=#333333;fillColor=none;strokeOpacity=100;fillOpacity=100;" vertex="1" parent="6Qbgpe0yNBsOp7DJYHt--11">
          <mxGeometry x="30" y="50.4" width="186" height="25.2" as="geometry" />
        </mxCell>
        <mxCell id="6Qbgpe0yNBsOp7DJYHt--16" value="FK1" style="strokeColor=none;part=1;resizeHeight=0;align=center;verticalAlign=top;spacingLeft=4;spacingRight=4;overflow=hidden;rotatable=0;points=[[0,0.5],[1,0.5]];portConstraint=eastwest;html=1;swimlaneFillColor=#ffffff;fontSize=16;fontColor=#333333;fillColor=none;strokeOpacity=100;fillOpacity=100;" vertex="1" parent="6Qbgpe0yNBsOp7DJYHt--11">
          <mxGeometry y="75.6" width="30" height="25.2" as="geometry" />
        </mxCell>
        <mxCell id="6Qbgpe0yNBsOp7DJYHt--17" value="EMP_NUM" style="shape=partialRectangle;top=0;right=0;bottom=0;part=1;resizeHeight=0;align=left;verticalAlign=top;spacingLeft=4;spacingRight=4;overflow=hidden;rotatable=0;points=[[0,0.5],[1,0.5]];portConstraint=eastwest;html=1;swimlaneFillColor=#ffffff;fontSize=16;fontColor=#333333;fillColor=none;strokeOpacity=100;fillOpacity=100;" vertex="1" parent="6Qbgpe0yNBsOp7DJYHt--11">
          <mxGeometry x="30" y="75.6" width="186" height="25.2" as="geometry" />
        </mxCell>
        <mxCell id="6Qbgpe0yNBsOp7DJYHt--18" value="" style="strokeColor=none;part=1;resizeHeight=0;align=center;verticalAlign=top;spacingLeft=4;spacingRight=4;overflow=hidden;rotatable=0;points=[[0,0.5],[1,0.5]];portConstraint=eastwest;html=1;swimlaneFillColor=#ffffff;fontSize=11;fillColor=none;strokeOpacity=100;fillOpacity=100;" vertex="1" parent="6Qbgpe0yNBsOp7DJYHt--11">
          <mxGeometry y="100.8" width="30" height="25.2" as="geometry" />
        </mxCell>
        <mxCell id="6Qbgpe0yNBsOp7DJYHt--19" value="ASSIGN_DATE" style="shape=partialRectangle;top=0;right=0;bottom=0;part=1;resizeHeight=0;align=left;verticalAlign=top;spacingLeft=4;spacingRight=4;overflow=hidden;rotatable=0;points=[[0,0.5],[1,0.5]];portConstraint=eastwest;html=1;swimlaneFillColor=#ffffff;fontSize=16;fontColor=#333333;fillColor=none;strokeOpacity=100;fillOpacity=100;" vertex="1" parent="6Qbgpe0yNBsOp7DJYHt--11">
          <mxGeometry x="30" y="100.8" width="186" height="25.2" as="geometry" />
        </mxCell>
        <mxCell id="6Qbgpe0yNBsOp7DJYHt--20" value="" style="strokeColor=none;part=1;resizeHeight=0;align=center;verticalAlign=top;spacingLeft=4;spacingRight=4;overflow=hidden;rotatable=0;points=[[0,0.5],[1,0.5]];portConstraint=eastwest;html=1;swimlaneFillColor=#ffffff;fontSize=11;fillColor=none;strokeOpacity=100;fillOpacity=100;" vertex="1" parent="6Qbgpe0yNBsOp7DJYHt--11">
          <mxGeometry y="126" width="30" height="25.2" as="geometry" />
        </mxCell>
        <mxCell id="6Qbgpe0yNBsOp7DJYHt--21" value="ASSIGN_HOURS" style="shape=partialRectangle;top=0;right=0;bottom=0;part=1;resizeHeight=0;align=left;verticalAlign=top;spacingLeft=4;spacingRight=4;overflow=hidden;rotatable=0;points=[[0,0.5],[1,0.5]];portConstraint=eastwest;html=1;swimlaneFillColor=#ffffff;fontSize=16;fontColor=#333333;fillColor=none;strokeOpacity=100;fillOpacity=100;" vertex="1" parent="6Qbgpe0yNBsOp7DJYHt--11">
          <mxGeometry x="30" y="126" width="186" height="25.2" as="geometry" />
        </mxCell>
        <UserObject label="" lucidchartObjectId="APLxdYCB38m1" id="6Qbgpe0yNBsOp7DJYHt--24">
          <mxCell style="html=1;jettySize=18;fontSize=11;strokeColor=#333333;strokeOpacity=100;rounded=1;arcSize=24;edgeStyle=orthogonalEdgeStyle;startArrow=none;;endArrow=block;endFill=1;;exitX=0.5;exitY=1;entryX=0;entryY=1;exitDx=0;exitDy=0;entryDx=0;entryDy=0;" edge="1" parent="1" source="C-vyLk0tnHw3VtMMgP7b-23" target="C-vyLk0tnHw3VtMMgP7b-13">
            <mxGeometry width="100" height="100" relative="1" as="geometry">
              <Array as="points" />
              <mxPoint x="144" y="329" as="sourcePoint" />
              <mxPoint x="798" y="316" as="targetPoint" />
            </mxGeometry>
          </mxCell>
        </UserObject>
        <UserObject label="Runs" lucidchartObjectId="RPLxjLdkZT4E" id="6Qbgpe0yNBsOp7DJYHt--25">
          <mxCell style="html=1;whiteSpace=wrap;;fontSize=19;fontColor=#333333;align=center;spacing=3;strokeOpacity=0;fillOpacity=0;rounded=1;absoluteArcSize=1;arcSize=9.6;fillColor=#ffffff;" vertex="1" zOrder="6042" parent="1">
            <mxGeometry x="444" y="320" width="144" height="36" as="geometry" />
          </mxCell>
        </UserObject>
        <UserObject label="records" lucidchartObjectId="x0Lxe8BE6XKg" id="6Qbgpe0yNBsOp7DJYHt--26">
          <mxCell style="html=1;whiteSpace=wrap;;fontSize=16;fontColor=#333333;align=center;spacing=3;strokeOpacity=0;fillOpacity=0;rounded=1;absoluteArcSize=1;arcSize=9.6;fillColor=#ffffff;" vertex="1" zOrder="6046" parent="1">
            <mxGeometry x="850" y="320" width="144" height="36" as="geometry" />
          </mxCell>
        </UserObject>
        <mxCell id="6Qbgpe0yNBsOp7DJYHt--27" value="Project" style="html=1;whiteSpace=wrap;swimlane;resizeParent=1;resizeParentMax=0;resizeLast=0;collapsible=1;marginBottom=0;swimlaneFillColor=#ffffff;startSize=25.2;fontSize=16;fontColor=#333333;align=center;fillColor=#ffffff;spacing=0;strokeColor=#333333;strokeOpacity=100;fillOpacity=100;rounded=1;absoluteArcSize=1;arcSize=9.6;" vertex="1" zOrder="6047" parent="1">
          <mxGeometry x="504" y="430" width="156" height="101" as="geometry" />
        </mxCell>
        <mxCell id="6Qbgpe0yNBsOp7DJYHt--28" value="PK" style="strokeColor=none;part=1;resizeHeight=0;align=center;verticalAlign=top;spacingLeft=4;spacingRight=4;overflow=hidden;rotatable=0;points=[[0,0.5],[1,0.5]];portConstraint=eastwest;html=1;swimlaneFillColor=#ffffff;fontSize=16;fontColor=#333333;fillColor=none;strokeOpacity=100;fillOpacity=100;" vertex="1" parent="6Qbgpe0yNBsOp7DJYHt--27">
          <mxGeometry y="25.2" width="30" height="25.2" as="geometry" />
        </mxCell>
        <mxCell id="6Qbgpe0yNBsOp7DJYHt--29" value="PROJ_CODE" style="shape=partialRectangle;top=0;right=0;bottom=0;part=1;resizeHeight=0;align=left;verticalAlign=top;spacingLeft=4;spacingRight=4;overflow=hidden;rotatable=0;points=[[0,0.5],[1,0.5]];portConstraint=eastwest;html=1;swimlaneFillColor=#ffffff;fontSize=16;fontColor=#333333;fillColor=none;strokeOpacity=100;fillOpacity=100;" vertex="1" parent="6Qbgpe0yNBsOp7DJYHt--27">
          <mxGeometry x="30" y="25.2" width="126" height="25.2" as="geometry" />
        </mxCell>
        <mxCell id="6Qbgpe0yNBsOp7DJYHt--30" value="" style="strokeColor=none;part=1;resizeHeight=0;align=center;verticalAlign=top;spacingLeft=4;spacingRight=4;overflow=hidden;rotatable=0;points=[[0,0.5],[1,0.5]];portConstraint=eastwest;html=1;swimlaneFillColor=#ffffff;fontSize=11;fillColor=none;strokeOpacity=100;fillOpacity=100;" vertex="1" parent="6Qbgpe0yNBsOp7DJYHt--27">
          <mxGeometry y="50.4" width="30" height="25.2" as="geometry" />
        </mxCell>
        <mxCell id="6Qbgpe0yNBsOp7DJYHt--31" value="PROJ_NAME" style="shape=partialRectangle;top=0;right=0;bottom=0;part=1;resizeHeight=0;align=left;verticalAlign=top;spacingLeft=4;spacingRight=4;overflow=hidden;rotatable=0;points=[[0,0.5],[1,0.5]];portConstraint=eastwest;html=1;swimlaneFillColor=#ffffff;fontSize=16;fontColor=#333333;fillColor=none;strokeOpacity=100;fillOpacity=100;" vertex="1" parent="6Qbgpe0yNBsOp7DJYHt--27">
          <mxGeometry x="30" y="50.4" width="126" height="25.2" as="geometry" />
        </mxCell>
        <mxCell id="6Qbgpe0yNBsOp7DJYHt--32" value="" style="strokeColor=none;part=1;resizeHeight=0;align=center;verticalAlign=top;spacingLeft=4;spacingRight=4;overflow=hidden;rotatable=0;points=[[0,0.5],[1,0.5]];portConstraint=eastwest;html=1;swimlaneFillColor=#ffffff;fontSize=11;fillColor=none;strokeOpacity=100;fillOpacity=100;" vertex="1" parent="6Qbgpe0yNBsOp7DJYHt--27">
          <mxGeometry y="75.6" width="30" height="25.2" as="geometry" />
        </mxCell>
        <mxCell id="6Qbgpe0yNBsOp7DJYHt--33" value="" style="shape=partialRectangle;top=0;right=0;bottom=0;part=1;resizeHeight=0;align=left;verticalAlign=top;spacingLeft=4;spacingRight=4;overflow=hidden;rotatable=0;points=[[0,0.5],[1,0.5]];portConstraint=eastwest;html=1;swimlaneFillColor=#ffffff;fontSize=11;fillColor=none;strokeOpacity=100;fillOpacity=100;" vertex="1" parent="6Qbgpe0yNBsOp7DJYHt--27">
          <mxGeometry x="30" y="75.6" width="126" height="25.2" as="geometry" />
        </mxCell>
        <UserObject label="is written in" lucidchartObjectId="04Lxzk6YUO.c" id="6Qbgpe0yNBsOp7DJYHt--34">
          <mxCell style="html=1;whiteSpace=wrap;;fontSize=16;fontColor=#333333;align=center;spacing=3;strokeOpacity=0;fillOpacity=0;rounded=1;absoluteArcSize=1;arcSize=9.6;fillColor=#ffffff;" vertex="1" zOrder="6049" parent="1">
            <mxGeometry x="678" y="450" width="144" height="36" as="geometry" />
          </mxCell>
        </UserObject>
        <mxCell id="6Qbgpe0yNBsOp7DJYHt--36" style="edgeStyle=none;rounded=0;orthogonalLoop=1;jettySize=auto;html=1;exitX=1;exitY=0.5;exitDx=0;exitDy=0;fontSize=16;entryX=-0.033;entryY=0.254;entryDx=0;entryDy=0;entryPerimeter=0;" edge="1" parent="1" source="6Qbgpe0yNBsOp7DJYHt--31" target="6Qbgpe0yNBsOp7DJYHt--16">
          <mxGeometry relative="1" as="geometry">
            <mxPoint x="870" y="493" as="targetPoint" />
          </mxGeometry>
        </mxCell>
        <mxCell id="C-vyLk0tnHw3VtMMgP7b-23" value="Division" style="shape=table;startSize=30;container=1;collapsible=1;childLayout=tableLayout;fixedRows=1;rowLines=0;fontStyle=1;align=center;resizeLast=1;" parent="1" vertex="1">
          <mxGeometry x="20" y="196" width="250" height="100" as="geometry" />
        </mxCell>
        <mxCell id="C-vyLk0tnHw3VtMMgP7b-24" value="" style="shape=partialRectangle;collapsible=0;dropTarget=0;pointerEvents=0;fillColor=none;points=[[0,0.5],[1,0.5]];portConstraint=eastwest;top=0;left=0;right=0;bottom=1;" parent="C-vyLk0tnHw3VtMMgP7b-23" vertex="1">
          <mxGeometry y="30" width="250" height="30" as="geometry" />
        </mxCell>
        <mxCell id="C-vyLk0tnHw3VtMMgP7b-25" value="PK" style="shape=partialRectangle;overflow=hidden;connectable=0;fillColor=none;top=0;left=0;bottom=0;right=0;fontStyle=0;" parent="C-vyLk0tnHw3VtMMgP7b-24" vertex="1">
          <mxGeometry width="30" height="30" as="geometry" />
        </mxCell>
        <mxCell id="C-vyLk0tnHw3VtMMgP7b-26" value="DIV_CODE" style="shape=partialRectangle;overflow=hidden;connectable=0;fillColor=none;top=0;left=0;bottom=0;right=0;align=left;spacingLeft=6;fontStyle=0;" parent="C-vyLk0tnHw3VtMMgP7b-24" vertex="1">
          <mxGeometry x="30" width="220" height="30" as="geometry" />
        </mxCell>
        <mxCell id="C-vyLk0tnHw3VtMMgP7b-27" value="" style="shape=partialRectangle;collapsible=0;dropTarget=0;pointerEvents=0;fillColor=none;points=[[0,0.5],[1,0.5]];portConstraint=eastwest;top=0;left=0;right=0;bottom=0;" parent="C-vyLk0tnHw3VtMMgP7b-23" vertex="1">
          <mxGeometry y="60" width="250" height="30" as="geometry" />
        </mxCell>
        <mxCell id="C-vyLk0tnHw3VtMMgP7b-28" value="FK1" style="shape=partialRectangle;overflow=hidden;connectable=0;fillColor=none;top=0;left=0;bottom=0;right=0;" parent="C-vyLk0tnHw3VtMMgP7b-27" vertex="1">
          <mxGeometry width="30" height="30" as="geometry" />
        </mxCell>
        <mxCell id="C-vyLk0tnHw3VtMMgP7b-29" value="EMP_NUM&#xa;DIV_NAME" style="shape=partialRectangle;overflow=hidden;connectable=0;fillColor=none;top=0;left=0;bottom=0;right=0;align=left;spacingLeft=6;" parent="C-vyLk0tnHw3VtMMgP7b-27" vertex="1">
          <mxGeometry x="30" width="220" height="30" as="geometry" />
        </mxCell>
        <mxCell id="6Qbgpe0yNBsOp7DJYHt--40" style="edgeStyle=none;rounded=0;orthogonalLoop=1;jettySize=auto;html=1;fontSize=16;entryX=1.004;entryY=0.267;entryDx=0;entryDy=0;entryPerimeter=0;" edge="1" parent="1" target="C-vyLk0tnHw3VtMMgP7b-6">
          <mxGeometry relative="1" as="geometry">
            <mxPoint x="850" y="234" as="sourcePoint" />
          </mxGeometry>
        </mxCell>
        <UserObject label="&lt;div style=&quot;font-size:20px;color:#333333;text-align: center;&quot;&gt;Author: Michelle Bell&#xa;&lt;/div&gt;&lt;div style=&quot;font-size:20px;color:#333333;text-align: center;&quot;&gt;CMPSC 321- Fall 2020&#xa;&lt;/div&gt;&lt;div style=&quot;font-size:20px;color:#333333;text-align: center;&quot;&gt;CS-SXU&#xa;&lt;/div&gt;&lt;div style=&quot;font-size:20px;color:#333333;text-align: center;&quot;&gt;&lt;/div&gt;&lt;div style=&quot;font-size:20px;color:#333333;text-align: center;&quot;&gt;Problem 4.2  (p.154 of the textbook)&#xa;&lt;/div&gt;&lt;div style=&quot;font-size:20px;color:#333333;text-align: center;&quot;&gt;Date: 09/19/2020&lt;/div&gt;" lucidchartObjectId="zZKx4j4V7vuD" id="6Qbgpe0yNBsOp7DJYHt--41">
          <mxCell style="html=1;whiteSpace=wrap;;overflow=width;spacing=3;strokeOpacity=0;fillOpacity=0;rounded=1;absoluteArcSize=1;arcSize=9.6;fillColor=#ffffff;" vertex="1" zOrder="6028" parent="1">
            <mxGeometry x="402" y="-160" width="228" height="175" as="geometry" />
          </mxCell>
        </UserObject>
        <mxCell id="C-vyLk0tnHw3VtMMgP7b-13" value="Employee" style="shape=table;startSize=30;container=1;collapsible=1;childLayout=tableLayout;fixedRows=1;rowLines=0;fontStyle=1;align=center;resizeLast=1;" parent="1" vertex="1">
          <mxGeometry x="850" y="70" width="250" height="180" as="geometry" />
        </mxCell>
        <mxCell id="C-vyLk0tnHw3VtMMgP7b-14" value="" style="shape=partialRectangle;collapsible=0;dropTarget=0;pointerEvents=0;fillColor=none;points=[[0,0.5],[1,0.5]];portConstraint=eastwest;top=0;left=0;right=0;bottom=1;" parent="C-vyLk0tnHw3VtMMgP7b-13" vertex="1">
          <mxGeometry y="30" width="250" height="30" as="geometry" />
        </mxCell>
        <mxCell id="C-vyLk0tnHw3VtMMgP7b-15" value="PK" style="shape=partialRectangle;overflow=hidden;connectable=0;fillColor=none;top=0;left=0;bottom=0;right=0;fontStyle=1;" parent="C-vyLk0tnHw3VtMMgP7b-14" vertex="1">
          <mxGeometry width="30" height="30" as="geometry" />
        </mxCell>
        <mxCell id="C-vyLk0tnHw3VtMMgP7b-16" value="EMP_NUM" style="shape=partialRectangle;overflow=hidden;connectable=0;fillColor=none;top=0;left=0;bottom=0;right=0;align=left;spacingLeft=6;fontStyle=5;" parent="C-vyLk0tnHw3VtMMgP7b-14" vertex="1">
          <mxGeometry x="30" width="220" height="30" as="geometry" />
        </mxCell>
        <mxCell id="C-vyLk0tnHw3VtMMgP7b-17" value="" style="shape=partialRectangle;collapsible=0;dropTarget=0;pointerEvents=0;fillColor=none;points=[[0,0.5],[1,0.5]];portConstraint=eastwest;top=0;left=0;right=0;bottom=0;" parent="C-vyLk0tnHw3VtMMgP7b-13" vertex="1">
          <mxGeometry y="60" width="250" height="30" as="geometry" />
        </mxCell>
        <mxCell id="C-vyLk0tnHw3VtMMgP7b-18" value="FK1" style="shape=partialRectangle;overflow=hidden;connectable=0;fillColor=none;top=0;left=0;bottom=0;right=0;" parent="C-vyLk0tnHw3VtMMgP7b-17" vertex="1">
          <mxGeometry width="30" height="30" as="geometry" />
        </mxCell>
        <mxCell id="C-vyLk0tnHw3VtMMgP7b-19" value="DEPT_CODE" style="shape=partialRectangle;overflow=hidden;connectable=0;fillColor=none;top=0;left=0;bottom=0;right=0;align=left;spacingLeft=6;" parent="C-vyLk0tnHw3VtMMgP7b-17" vertex="1">
          <mxGeometry x="30" width="220" height="30" as="geometry" />
        </mxCell>
        <mxCell id="C-vyLk0tnHw3VtMMgP7b-20" value="" style="shape=partialRectangle;collapsible=0;dropTarget=0;pointerEvents=0;fillColor=none;points=[[0,0.5],[1,0.5]];portConstraint=eastwest;top=0;left=0;right=0;bottom=0;" parent="C-vyLk0tnHw3VtMMgP7b-13" vertex="1">
          <mxGeometry y="90" width="250" height="30" as="geometry" />
        </mxCell>
        <mxCell id="C-vyLk0tnHw3VtMMgP7b-21" value="" style="shape=partialRectangle;overflow=hidden;connectable=0;fillColor=none;top=0;left=0;bottom=0;right=0;" parent="C-vyLk0tnHw3VtMMgP7b-20" vertex="1">
          <mxGeometry width="30" height="30" as="geometry" />
        </mxCell>
        <mxCell id="C-vyLk0tnHw3VtMMgP7b-22" value="EMP_LNAME&#xa;EMP_FNAME" style="shape=partialRectangle;overflow=hidden;connectable=0;fillColor=none;top=0;left=0;bottom=0;right=0;align=left;spacingLeft=6;fontStyle=1" parent="C-vyLk0tnHw3VtMMgP7b-20" vertex="1">
          <mxGeometry x="30" width="220" height="30" as="geometry" />
        </mxCell>
        <mxCell id="C-vyLk0tnHw3VtMMgP7b-2" value="Department" style="shape=table;startSize=30;container=1;collapsible=1;childLayout=tableLayout;fixedRows=1;rowLines=0;fontStyle=1;align=center;resizeLast=1;" parent="1" vertex="1">
          <mxGeometry x="410" y="166" width="250" height="124" as="geometry" />
        </mxCell>
        <mxCell id="C-vyLk0tnHw3VtMMgP7b-3" value="" style="shape=partialRectangle;collapsible=0;dropTarget=0;pointerEvents=0;fillColor=none;points=[[0,0.5],[1,0.5]];portConstraint=eastwest;top=0;left=0;right=0;bottom=1;" parent="C-vyLk0tnHw3VtMMgP7b-2" vertex="1">
          <mxGeometry y="30" width="250" height="30" as="geometry" />
        </mxCell>
        <mxCell id="C-vyLk0tnHw3VtMMgP7b-4" value="PK" style="shape=partialRectangle;overflow=hidden;connectable=0;fillColor=none;top=0;left=0;bottom=0;right=0;fontStyle=0;" parent="C-vyLk0tnHw3VtMMgP7b-3" vertex="1">
          <mxGeometry width="30" height="30" as="geometry" />
        </mxCell>
        <mxCell id="C-vyLk0tnHw3VtMMgP7b-5" value="DEPT_CODE" style="shape=partialRectangle;overflow=hidden;connectable=0;fillColor=none;top=0;left=0;bottom=0;right=0;align=left;spacingLeft=6;fontStyle=0;" parent="C-vyLk0tnHw3VtMMgP7b-3" vertex="1">
          <mxGeometry x="30" width="220" height="30" as="geometry" />
        </mxCell>
        <mxCell id="C-vyLk0tnHw3VtMMgP7b-6" value="" style="shape=partialRectangle;collapsible=0;dropTarget=0;pointerEvents=0;fillColor=none;points=[[0,0.5],[1,0.5]];portConstraint=eastwest;top=0;left=0;right=0;bottom=0;" parent="C-vyLk0tnHw3VtMMgP7b-2" vertex="1">
          <mxGeometry y="60" width="250" height="30" as="geometry" />
        </mxCell>
        <mxCell id="C-vyLk0tnHw3VtMMgP7b-7" value="FK1" style="shape=partialRectangle;overflow=hidden;connectable=0;fillColor=none;top=0;left=0;bottom=0;right=0;" parent="C-vyLk0tnHw3VtMMgP7b-6" vertex="1">
          <mxGeometry width="30" height="30" as="geometry" />
        </mxCell>
        <mxCell id="C-vyLk0tnHw3VtMMgP7b-8" value="DIV_CODE" style="shape=partialRectangle;overflow=hidden;connectable=0;fillColor=none;top=0;left=0;bottom=0;right=0;align=left;spacingLeft=6;" parent="C-vyLk0tnHw3VtMMgP7b-6" vertex="1">
          <mxGeometry x="30" width="220" height="30" as="geometry" />
        </mxCell>
        <mxCell id="C-vyLk0tnHw3VtMMgP7b-9" value="" style="shape=partialRectangle;collapsible=0;dropTarget=0;pointerEvents=0;fillColor=none;points=[[0,0.5],[1,0.5]];portConstraint=eastwest;top=0;left=0;right=0;bottom=0;" parent="C-vyLk0tnHw3VtMMgP7b-2" vertex="1">
          <mxGeometry y="90" width="250" height="24" as="geometry" />
        </mxCell>
        <mxCell id="C-vyLk0tnHw3VtMMgP7b-10" value="" style="shape=partialRectangle;overflow=hidden;connectable=0;fillColor=none;top=0;left=0;bottom=0;right=0;" parent="C-vyLk0tnHw3VtMMgP7b-9" vertex="1">
          <mxGeometry width="30" height="24" as="geometry" />
        </mxCell>
        <mxCell id="C-vyLk0tnHw3VtMMgP7b-11" value="DEPT_NAME" style="shape=partialRectangle;overflow=hidden;connectable=0;fillColor=none;top=0;left=0;bottom=0;right=0;align=left;spacingLeft=6;" parent="C-vyLk0tnHw3VtMMgP7b-9" vertex="1">
          <mxGeometry x="30" width="220" height="24" as="geometry" />
        </mxCell>
      </root>
    </mxGraphModel>
  </diagram>
</mxfile>
